<svg width="1185" height="277" viewBox="0 0 1185 277" fill="none" xmlns="http://www.w3.org/2000/svg">
<path d="M455.345 130.593L356.537 71.6996C347.667 66.856 336.495 73.0756 336.495 83.2581V197.742C336.495 207.869 347.61 214.144 356.537 209.3L455.345 153.71C464.552 148.701 464.552 135.656 455.345 130.593ZM529.62 140.5C529.62 65.0948 467.303 4 390.39 4C313.477 4 251.16 65.0948 251.16 140.5C251.16 215.905 313.477 277 390.39 277C467.303 277 529.62 215.905 529.62 140.5ZM278.108 140.5C278.108 79.6804 328.354 30.4194 390.39 30.4194C452.426 30.4194 502.672 79.6804 502.672 140.5C502.672 201.32 452.426 250.581 390.39 250.581C328.354 250.581 278.108 201.32 278.108 140.5Z" fill="#9215F2"/>
<path d="M272.488 0.228748L256.791 250.706L178.986 254.119L179.668 122.055L144.519 228.525H114.489L87.5306 133.316L87.1894 243.881L8.36063 246.27L11.7731 10.4662L99.4744 7.05375L134.282 120.007L180.692 0.228748H272.488Z" fill="#022F6F"/>
<path d="M714.919 9.78375L652.47 240.469L567.84 245.246L491.059 22.41L571.935 14.9025L604.695 144.577L636.431 4.665L714.919 9.78375ZM809.274 8.76L797.331 241.151L725.327 244.905L718.502 13.5375L809.274 8.76ZM983.312 68.4787L905.166 167.1H977.169L979.558 239.445L827.361 245.587L820.536 178.702L909.602 69.5025L821.218 75.645L820.536 7.05375H980.241L983.312 68.4787ZM1156.67 68.4787L1078.52 167.1H1150.52L1152.91 239.445L1000.72 245.587L993.891 178.702L1082.96 69.5025L994.573 75.645L993.891 7.05375H1153.6L1156.67 68.4787Z" fill="#022F6F"/>
</svg>
